<svg aria-roledescription="flowchart-v2" role="graphics-document document" viewBox="-8 -8 860 411.20355224609375" style="max-width: 860px;" xmlns="http://www.w3.org/2000/svg" width="860" id="svg" xmlns:xlink="http://www.w3.org/1999/xlink" height="411.20355224609375"><style>#svg{font-family:"trebuchet ms",verdana,arial,sans-serif;font-size:16px;fill:#333;}#svg .error-icon{fill:#552222;}#svg .error-text{fill:#552222;stroke:#552222;}#svg .edge-thickness-normal{stroke-width:2px;}#svg .edge-thickness-thick{stroke-width:3.5px;}#svg .edge-pattern-solid{stroke-dasharray:0;}#svg .edge-pattern-dashed{stroke-dasharray:3;}#svg .edge-pattern-dotted{stroke-dasharray:2;}#svg .marker{fill:#333333;stroke:#333333;}#svg .marker.cross{stroke:#333333;}#svg svg{font-family:"trebuchet ms",verdana,arial,sans-serif;font-size:16px;}#svg .label{font-family:"trebuchet ms",verdana,arial,sans-serif;color:#333;}#svg .cluster-label text{fill:#333;}#svg .cluster-label span,#svg p{color:#333;}#svg .label text,#svg span,#svg p{fill:#333;color:#333;}#svg .node rect,#svg .node circle,#svg .node ellipse,#svg .node polygon,#svg .node path{fill:#ECECFF;stroke:#9370DB;stroke-width:1px;}#svg .flowchart-label text{text-anchor:middle;}#svg .node .katex path{fill:#000;stroke:#000;stroke-width:1px;}#svg .node .label{text-align:center;}#svg .node.clickable{cursor:pointer;}#svg .arrowheadPath{fill:#333333;}#svg .edgePath .path{stroke:#333333;stroke-width:2.0px;}#svg .flowchart-link{stroke:#333333;fill:none;}#svg .edgeLabel{background-color:#e8e8e8;text-align:center;}#svg .edgeLabel rect{opacity:0.5;background-color:#e8e8e8;fill:#e8e8e8;}#svg .labelBkg{background-color:rgba(232, 232, 232, 0.5);}#svg .cluster rect{fill:#ffffde;stroke:#aaaa33;stroke-width:1px;}#svg .cluster text{fill:#333;}#svg .cluster span,#svg p{color:#333;}#svg div.mermaidTooltip{position:absolute;text-align:center;max-width:200px;padding:2px;font-family:"trebuchet ms",verdana,arial,sans-serif;font-size:12px;background:hsl(80, 100%, 96.2745098039%);border:1px solid #aaaa33;border-radius:2px;pointer-events:none;z-index:100;}#svg .flowchartTitleText{text-anchor:middle;font-size:18px;fill:#333;}#svg .today{display:none;}#svg .label foreignObject{overflow:visible;}#svg :root{--mermaid-font-family:"trebuchet ms",verdana,arial,sans-serif;}#svg .core&gt;*{fill:#4CA497!important;color:#fff!important;stroke:none!important;rx:10!important;ry:10!important;}#svg .core span{fill:#4CA497!important;color:#fff!important;stroke:none!important;rx:10!important;ry:10!important;}#svg .core tspan{fill:#fff!important;}#svg .storage&gt;*{fill:#00838F!important;color:#fff!important;stroke:none!important;rx:10!important;ry:10!important;}#svg .storage span{fill:#00838F!important;color:#fff!important;stroke:none!important;rx:10!important;ry:10!important;}#svg .storage tspan{fill:#fff!important;}#svg .ai&gt;*{fill:#E99151!important;color:#fff!important;stroke:none!important;rx:10!important;ry:10!important;}#svg .ai span{fill:#E99151!important;color:#fff!important;stroke:none!important;rx:10!important;ry:10!important;}#svg .ai tspan{fill:#fff!important;}</style><g><marker orient="auto" markerHeight="12" markerWidth="12" markerUnits="userSpaceOnUse" refY="5" refX="6" viewBox="0 0 10 10" class="marker flowchart" id="svg_flowchart-pointEnd"><path style="stroke-width: 1; stroke-dasharray: 1, 0;" class="arrowMarkerPath" d="M 0 0 L 10 5 L 0 10 z"></path></marker><marker orient="auto" markerHeight="12" markerWidth="12" markerUnits="userSpaceOnUse" refY="5" refX="4.5" viewBox="0 0 10 10" class="marker flowchart" id="svg_flowchart-pointStart"><path style="stroke-width: 1; stroke-dasharray: 1, 0;" class="arrowMarkerPath" d="M 0 5 L 10 10 L 10 0 z"></path></marker><marker orient="auto" markerHeight="11" markerWidth="11" markerUnits="userSpaceOnUse" refY="5" refX="11" viewBox="0 0 10 10" class="marker flowchart" id="svg_flowchart-circleEnd"><circle style="stroke-width: 1; stroke-dasharray: 1, 0;" class="arrowMarkerPath" r="5" cy="5" cx="5"></circle></marker><marker orient="auto" markerHeight="11" markerWidth="11" markerUnits="userSpaceOnUse" refY="5" refX="-1" viewBox="0 0 10 10" class="marker flowchart" id="svg_flowchart-circleStart"><circle style="stroke-width: 1; stroke-dasharray: 1, 0;" class="arrowMarkerPath" r="5" cy="5" cx="5"></circle></marker><marker orient="auto" markerHeight="11" markerWidth="11" markerUnits="userSpaceOnUse" refY="5.2" refX="12" viewBox="0 0 11 11" class="marker cross flowchart" id="svg_flowchart-crossEnd"><path style="stroke-width: 2; stroke-dasharray: 1, 0;" class="arrowMarkerPath" d="M 1,1 l 9,9 M 10,1 l -9,9"></path></marker><marker orient="auto" markerHeight="11" markerWidth="11" markerUnits="userSpaceOnUse" refY="5.2" refX="-1" viewBox="0 0 11 11" class="marker cross flowchart" id="svg_flowchart-crossStart"><path style="stroke-width: 2; stroke-dasharray: 1, 0;" class="arrowMarkerPath" d="M 1,1 l 9,9 M 10,1 l -9,9"></path></marker><g class="root"><g class="clusters"><g id="AI_Layer" class="cluster default flowchart-label"><rect height="106" width="380" y="0" x="464" ry="0" rx="0" style="fill:#F5F7FA;stroke:#E0E6ED;"></rect><g transform="translate(635.5, 0)" class="cluster-label"><foreignObject height="21" width="37"><div xmlns="http://www.w3.org/1999/xhtml" style="color: rgb(51, 51, 51); display: inline-block; white-space: nowrap;"><span style="color:#333;" class="nodeLabel">AI 层</span></div></foreignObject></g></g><g id="Storage" class="cluster default flowchart-label"><rect height="269.2035675048828" width="210" y="126" x="464" ry="0" rx="0" style="fill:#F5F7FA;stroke:#E0E6ED;"></rect><g transform="translate(545, 126)" class="cluster-label"><foreignObject height="21" width="48"><div xmlns="http://www.w3.org/1999/xhtml" style="color: rgb(51, 51, 51); display: inline-block; white-space: nowrap;"><span style="color:#333;" class="nodeLabel">存储层</span></div></foreignObject></g></g><g id="App" class="cluster default flowchart-label"><rect height="330.900936126709" width="203" y="13" x="147" ry="0" rx="0" style="fill:#F5F7FA;stroke:#E0E6ED;"></rect><g transform="translate(216.5, 13)" class="cluster-label"><foreignObject height="21" width="64"><div xmlns="http://www.w3.org/1999/xhtml" style="color: rgb(51, 51, 51); display: inline-block; white-space: nowrap;"><span style="color:#333;" class="nodeLabel">后端应用</span></div></foreignObject></g></g><g id="Client" class="cluster default flowchart-label"><rect height="117" width="97" y="138.04915237426758" x="0" ry="0" rx="0" style="fill:#F0F2F5;stroke:#E0E6ED;"></rect><g transform="translate(24.5, 138.04915237426758)" class="cluster-label"><foreignObject height="21" width="48"><div xmlns="http://www.w3.org/1999/xhtml" style="color: rgb(51, 51, 51); display: inline-block; white-space: nowrap;"><span style="color:#333;" class="nodeLabel">客户端</span></div></foreignObject></g></g></g><g class="edgePaths"><path marker-end="url(#svg_flowchart-pointEnd)" style="fill:none;" class="edge-thickness-normal edge-pattern-solid flowchart-link LS-User LE-Service" id="L-User-Service-0" d="M72,196.549L76.167,196.549C80.333,196.549,88.667,196.549,97,196.549C105.333,196.549,113.667,196.549,122,196.549C130.333,196.549,138.667,196.549,146.117,196.549C153.567,196.549,160.133,196.549,163.417,196.549L166.7,196.549"></path><path marker-end="url(#svg_flowchart-pointEnd)" marker-start="url(#svg_flowchart-pointStart)" style="fill:none;" class="edge-thickness-normal edge-pattern-solid flowchart-link LS-Service LE-Redis" id="L-Service-Redis-0" d="M330.3,196.549L333.583,196.549C336.867,196.549,343.433,196.549,356.217,196.549C369,196.549,388,196.549,407,196.549C426,196.549,445,196.549,461.95,196.549C478.9,196.549,493.8,196.549,501.25,196.549L508.7,196.549"></path><path marker-end="url(#svg_flowchart-pointEnd)" style="fill:none;" class="edge-thickness-normal edge-pattern-solid flowchart-link LS-Service LE-DB" id="L-Service-DB-0" d="M262.348,213.549L276.957,231.483C291.565,249.416,320.783,285.284,344.891,303.217C369,321.151,388,321.151,407,321.151C426,321.151,445,321.151,457.783,321.151C470.567,321.151,477.133,321.151,480.417,321.151L483.7,321.151"></path><path marker-end="url(#svg_flowchart-pointEnd)" marker-start="url(#svg_flowchart-pointStart)" style="fill:none;" class="edge-thickness-normal edge-pattern-solid flowchart-link LS-Service LE-SpringAI" id="L-Service-SpringAI-0" d="M263.58,175.222L277.983,154.851C292.387,134.481,321.193,93.741,345.097,73.37C369,53,388,53,407,53C426,53,445,53,463.867,53C482.733,53,501.467,53,510.833,53L520.2,53"></path><path marker-end="url(#svg_flowchart-pointEnd)" marker-start="url(#svg_flowchart-pointStart)" style="fill:none;" class="edge-thickness-normal edge-pattern-solid flowchart-link LS-SpringAI LE-LLM" id="L-SpringAI-LLM-0" d="M617.8,53L627.167,53C636.533,53,655.267,53,668.8,53C682.333,53,690.667,53,698.117,53C705.567,53,712.133,53,715.417,53L718.7,53"></path></g><g class="edgeLabels"><g class="edgeLabel"><g transform="translate(0, 0)" class="label"><foreignObject height="0" width="0"><div style="display: inline-block; white-space: nowrap;" xmlns="http://www.w3.org/1999/xhtml"><span class="edgeLabel"></span></div></foreignObject></g></g><g class="edgeLabel"><g transform="translate(0, 0)" class="label"><foreignObject height="0" width="0"><div style="display: inline-block; white-space: nowrap;" xmlns="http://www.w3.org/1999/xhtml"><span class="edgeLabel"></span></div></foreignObject></g></g><g transform="translate(407, 321.150936126709)" class="edgeLabel"><g transform="translate(-32, -10.5)" class="label"><foreignObject height="21" width="64"><div style="display: inline-block; white-space: nowrap;" xmlns="http://www.w3.org/1999/xhtml"><span class="edgeLabel">同步写入</span></div></foreignObject></g></g><g class="edgeLabel"><g transform="translate(0, 0)" class="label"><foreignObject height="0" width="0"><div style="display: inline-block; white-space: nowrap;" xmlns="http://www.w3.org/1999/xhtml"><span class="edgeLabel"></span></div></foreignObject></g></g><g class="edgeLabel"><g transform="translate(0, 0)" class="label"><foreignObject height="0" width="0"><div style="display: inline-block; white-space: nowrap;" xmlns="http://www.w3.org/1999/xhtml"><span class="edgeLabel"></span></div></foreignObject></g></g></g><g class="nodes"><g transform="translate(569, 53)" data-id="SpringAI" data-node="true" id="flowchart-SpringAI-4" class="node default ai flowchart-label"><rect height="34" width="87" y="-17" x="-43.5" ry="0" rx="0" style="" class="basic label-container"></rect><g transform="translate(-36, -9.5)" style="" class="label"><rect></rect><foreignObject height="19" width="72"><div style="display: inline-block; white-space: nowrap;" xmlns="http://www.w3.org/1999/xhtml"><span class="nodeLabel">Spring AI</span></div></foreignObject></g></g><g transform="translate(771.5, 53)" data-id="LLM" data-node="true" id="flowchart-LLM-5" class="node default ai flowchart-label"><rect height="36" width="95" y="-18" x="-47.5" ry="0" rx="0" style="" class="basic label-container"></rect><g transform="translate(-40, -10.5)" style="" class="label"><rect></rect><foreignObject height="21" width="80"><div style="display: inline-block; white-space: nowrap;" xmlns="http://www.w3.org/1999/xhtml"><span class="nodeLabel">大语言模型</span></div></foreignObject></g></g><g transform="translate(569, 196.54915237426758)" data-id="Redis" data-node="true" id="flowchart-Redis-2" class="node default storage flowchart-label"><path transform="translate(-55,-35.5531914893617)" d="M 0,11.702127659574467 a 55,11.702127659574467 0,0,0 110 0 a 55,11.702127659574467 0,0,0 -110 0 l 0,47.702127659574465 a 55,11.702127659574467 0,0,0 110 0 l 0,-47.702127659574465" style=""></path><g transform="translate(-47.5, -10.5)" style="" class="label"><rect></rect><foreignObject height="21" width="95"><div style="display: inline-block; white-space: nowrap;" xmlns="http://www.w3.org/1999/xhtml"><span class="nodeLabel">Redis 热缓存</span></div></foreignObject></g></g><g transform="translate(569, 321.150936126709)" data-id="DB" data-node="true" id="flowchart-DB-3" class="node default storage flowchart-label"><path transform="translate(-80,-39.05263157894737)" d="M 0,14.035087719298245 a 80,14.035087719298245 0,0,0 160 0 a 80,14.035087719298245 0,0,0 -160 0 l 0,50.03508771929825 a 80,14.035087719298245 0,0,0 160 0 l 0,-50.03508771929825" style=""></path><g transform="translate(-72.5, -10.5)" style="" class="label"><rect></rect><foreignObject height="21" width="145"><div style="display: inline-block; white-space: nowrap;" xmlns="http://www.w3.org/1999/xhtml"><span class="nodeLabel">PostgreSQL 持久化</span></div></foreignObject></g></g><g transform="translate(248.5, 196.54915237426758)" data-id="Service" data-node="true" id="flowchart-Service-1" class="node default core flowchart-label"><rect height="34" width="153" y="-17" x="-76.5" ry="0" rx="0" style="" class="basic label-container"></rect><g transform="translate(-69, -9.5)" style="" class="label"><rect></rect><foreignObject height="19" width="138"><div style="display: inline-block; white-space: nowrap;" xmlns="http://www.w3.org/1999/xhtml"><span class="nodeLabel">Interview Service</span></div></foreignObject></g></g><g transform="translate(48.5, 196.54915237426758)" data-id="User" data-node="true" id="flowchart-User-0" class="node default default flowchart-label"><circle height="36" width="47" r="23.5" ry="0" rx="0" style=""></circle><g transform="translate(-16, -10.5)" style="" class="label"><rect></rect><foreignObject height="21" width="32"><div style="display: inline-block; white-space: nowrap;" xmlns="http://www.w3.org/1999/xhtml"><span class="nodeLabel">用户</span></div></foreignObject></g></g></g></g></g></svg>